<svg width="461" height="461" viewBox="0 0 461 461" fill="none" xmlns="http://www.w3.org/2000/svg">
<g clip-path="url(#clip0_102_166)">
<path fill-rule="evenodd" clip-rule="evenodd" d="M230.485 4.802C103.206 4.802 0 108.403 0 236.23C0 338.457 66.0382 425.194 157.648 455.799C169.173 457.925 173.379 450.779 173.379 444.647C173.379 439.151 173.177 424.601 173.062 405.292C108.94 419.278 95.4127 374.269 95.4127 374.269C84.9393 347.54 69.8272 340.424 69.8272 340.424C48.8949 326.062 71.4116 326.351 71.4116 326.351C94.5337 327.985 106.707 350.201 106.707 350.201C127.279 385.564 160.659 375.353 173.797 369.423C175.886 354.468 181.85 344.272 188.434 338.486C137.248 332.643 83.4409 312.799 83.4409 224.125C83.4409 198.857 92.4162 178.203 107.168 162.019C104.791 156.161 96.8822 132.644 109.416 100.781C109.416 100.781 128.777 94.5615 172.803 124.501C191.2 119.366 210.908 116.806 230.515 116.705C250.093 116.806 269.815 119.366 288.226 124.501C332.223 94.5615 351.542 100.781 351.542 100.781C364.118 132.644 356.209 156.161 353.832 162.019C368.613 178.203 377.53 198.857 377.53 224.125C377.53 313.016 323.636 332.585 272.293 338.312C280.562 345.457 287.938 359.574 287.938 381.168C287.938 412.105 287.65 437.054 287.65 444.647C287.65 450.837 291.799 458.04 303.497 455.769C395.02 425.107 461 338.428 461 236.23C461 108.403 357.793 4.802 230.485 4.802Z" fill="black"/>
</g>
<defs>
<clipPath id="clip0_102_166">
<rect width="461" height="461" fill="white"/>
</clipPath>
</defs>
</svg>
